<svg width="86" height="40" viewBox="0 0 86 40" fill="none" xmlns="http://www.w3.org/2000/svg">
<path d="M0.986667 21.5867C0.986667 20.1111 1.28889 18.8044 1.89333 17.6667C2.51556 16.5289 3.35111 15.6489 4.4 15.0267C5.46667 14.3867 6.64 14.0667 7.92 14.0667C9.07556 14.0667 10.08 14.2978 10.9333 14.76C11.8044 15.2044 12.4978 15.7644 13.0133 16.44V14.3067H16.08V29H13.0133V26.8133C12.4978 27.5067 11.7956 28.0844 10.9067 28.5467C10.0178 29.0089 9.00445 29.24 7.86667 29.24C6.60445 29.24 5.44889 28.92 4.4 28.28C3.35111 27.6222 2.51556 26.7156 1.89333 25.56C1.28889 24.3867 0.986667 23.0622 0.986667 21.5867ZM13.0133 21.64C13.0133 20.6267 12.8 19.7467 12.3733 19C11.9644 18.2533 11.4222 17.6844 10.7467 17.2933C10.0711 16.9022 9.34222 16.7067 8.56 16.7067C7.77778 16.7067 7.04889 16.9022 6.37333 17.2933C5.69778 17.6667 5.14667 18.2267 4.72 18.9733C4.31111 19.7022 4.10667 20.5733 4.10667 21.5867C4.10667 22.6 4.31111 23.4889 4.72 24.2533C5.14667 25.0178 5.69778 25.6044 6.37333 26.0133C7.06667 26.4044 7.79556 26.6 8.56 26.6C9.34222 26.6 10.0711 26.4044 10.7467 26.0133C11.4222 25.6222 11.9644 25.0533 12.3733 24.3067C12.8 23.5422 13.0133 22.6533 13.0133 21.64ZM18.7929 21.5867C18.7929 20.1111 19.0951 18.8044 19.6996 17.6667C20.3218 16.5289 21.1574 15.6489 22.2063 15.0267C23.2729 14.3867 24.4551 14.0667 25.7529 14.0667C26.7129 14.0667 27.6551 14.28 28.5796 14.7067C29.5218 15.1156 30.2685 15.6667 30.8196 16.36V9.26667H33.8863V29H30.8196V26.7867C30.3218 27.4978 29.6285 28.0844 28.7396 28.5467C27.8685 29.0089 26.864 29.24 25.7263 29.24C24.4463 29.24 23.2729 28.92 22.2063 28.28C21.1574 27.6222 20.3218 26.7156 19.6996 25.56C19.0951 24.3867 18.7929 23.0622 18.7929 21.5867ZM30.8196 21.64C30.8196 20.6267 30.6063 19.7467 30.1796 19C29.7707 18.2533 29.2285 17.6844 28.5529 17.2933C27.8774 16.9022 27.1485 16.7067 26.3663 16.7067C25.584 16.7067 24.8551 16.9022 24.1796 17.2933C23.504 17.6667 22.9529 18.2267 22.5263 18.9733C22.1174 19.7022 21.9129 20.5733 21.9129 21.5867C21.9129 22.6 22.1174 23.4889 22.5263 24.2533C22.9529 25.0178 23.504 25.6044 24.1796 26.0133C24.8729 26.4044 25.6018 26.6 26.3663 26.6C27.1485 26.6 27.8774 26.4044 28.5529 26.0133C29.2285 25.6222 29.7707 25.0533 30.1796 24.3067C30.6063 23.5422 30.8196 22.6533 30.8196 21.64ZM43.9858 29.24C42.5992 29.24 41.3458 28.9289 40.2258 28.3067C39.1058 27.6667 38.2258 26.7778 37.5858 25.64C36.9458 24.4844 36.6258 23.1511 36.6258 21.64C36.6258 20.1467 36.9547 18.8222 37.6125 17.6667C38.2703 16.5111 39.1681 15.6222 40.3058 15C41.4436 14.3778 42.7147 14.0667 44.1192 14.0667C45.5236 14.0667 46.7947 14.3778 47.9325 15C49.0703 15.6222 49.9681 16.5111 50.6258 17.6667C51.2836 18.8222 51.6125 20.1467 51.6125 21.64C51.6125 23.1333 51.2747 24.4578 50.5992 25.6133C49.9236 26.7689 48.9992 27.6667 47.8258 28.3067C46.6703 28.9289 45.3903 29.24 43.9858 29.24ZM43.9858 26.6C44.7681 26.6 45.4969 26.4133 46.1725 26.04C46.8658 25.6667 47.4258 25.1067 47.8525 24.36C48.2792 23.6133 48.4925 22.7067 48.4925 21.64C48.4925 20.5733 48.2881 19.6756 47.8792 18.9467C47.4703 18.2 46.9281 17.64 46.2525 17.2667C45.5769 16.8933 44.8481 16.7067 44.0658 16.7067C43.2836 16.7067 42.5547 16.8933 41.8792 17.2667C41.2214 17.64 40.6969 18.2 40.3058 18.9467C39.9147 19.6756 39.7192 20.5733 39.7192 21.64C39.7192 23.2222 40.1192 24.4489 40.9192 25.32C41.7369 26.1733 42.7592 26.6 43.9858 26.6ZM67.5777 14.3067L58.5644 35.9067H55.4177L58.4044 28.76L52.6177 14.3067H56.0044L60.1377 25.5067L64.431 14.3067H67.5777ZM68.5919 21.5867C68.5919 20.1111 68.8941 18.8044 69.4985 17.6667C70.1208 16.5289 70.9563 15.6489 72.0052 15.0267C73.0719 14.3867 74.2452 14.0667 75.5252 14.0667C76.6808 14.0667 77.6852 14.2978 78.5385 14.76C79.4097 15.2044 80.103 15.7644 80.6185 16.44V14.3067H83.6852V29H80.6185V26.8133C80.103 27.5067 79.4008 28.0844 78.5119 28.5467C77.623 29.0089 76.6097 29.24 75.4719 29.24C74.2097 29.24 73.0541 28.92 72.0052 28.28C70.9563 27.6222 70.1208 26.7156 69.4985 25.56C68.8941 24.3867 68.5919 23.0622 68.5919 21.5867ZM80.6185 21.64C80.6185 20.6267 80.4052 19.7467 79.9785 19C79.5697 18.2533 79.0274 17.6844 78.3519 17.2933C77.6763 16.9022 76.9474 16.7067 76.1652 16.7067C75.383 16.7067 74.6541 16.9022 73.9785 17.2933C73.303 17.6667 72.7519 18.2267 72.3252 18.9733C71.9163 19.7022 71.7119 20.5733 71.7119 21.5867C71.7119 22.6 71.9163 23.4889 72.3252 24.2533C72.7519 25.0178 73.303 25.6044 73.9785 26.0133C74.6719 26.4044 75.4008 26.6 76.1652 26.6C76.9474 26.6 77.6763 26.4044 78.3519 26.0133C79.0274 25.6222 79.5697 25.0533 79.9785 24.3067C80.4052 23.5422 80.6185 22.6533 80.6185 21.64Z" fill="#171A23"/>
<path d="M34.6955 20.3643C34.3358 19.3475 34.6911 18.2154 35.5673 17.5864L42.4656 12.6348C43.3004 12.0356 44.4223 12.0278 45.2654 12.6153L52.4483 17.6214C53.317 18.2268 53.6922 19.326 53.3752 20.3362L50.8812 28.2829C50.5642 29.2932 49.6282 29.9808 48.5694 29.9813L39.8141 29.9854C38.7865 29.9859 37.8702 29.3384 37.5275 28.3697L34.6955 20.3643Z" fill="#1F7868"/>
</svg>
